HIERARCHY
ROOT Hips
{
	OFFSET	0.00	0.00	0.00
	CHANNELS 6 Xposition Yposition Zposition Zrotation Xrotation Yrotation
	JOINT LeftUpperLeg
	{
		OFFSET	 0.100000	-0.066564	-0.000554
		CHANNELS 3 Zrotation Xrotation Yrotation
		JOINT LeftLowerLeg
		{
			OFFSET	 0.002447	-0.463436	-0.005172
			CHANNELS 3 Zrotation Xrotation Yrotation
			JOINT LeftFoot
			{
				OFFSET	-0.002447	-0.420480	-0.020576
				CHANNELS 3 Zrotation Xrotation Yrotation
				JOINT LeftToes
				{
					OFFSET	 0.003734	-0.104922	 0.126407
					CHANNELS 3 Zrotation Xrotation Yrotation
					End Site
					{
						OFFSET	 0.000000	 0.000000	 0.059955
					}
				}
			}
		}
	}
	JOINT RightUpperLeg
	{
		OFFSET	-0.100000	-0.066564	-0.000554
		CHANNELS 3 Zrotation Xrotation Yrotation
		JOINT RightLowerLeg
		{
			OFFSET	-0.002447	-0.463436	-0.005146
			CHANNELS 3 Zrotation Xrotation Yrotation
			JOINT RightFoot
			{
				OFFSET	 0.002447	-0.420479	-0.020602
				CHANNELS 3 Zrotation Xrotation Yrotation
				JOINT RightToes
				{
					OFFSET	-0.003734	-0.104922	 0.126407
					CHANNELS 3 Zrotation Xrotation Yrotation
					End Site
					{
						OFFSET	-0.000000	 0.000000	 0.059955
					}
				}
			}
		}
	}
	JOINT Spine
	{
		OFFSET	 0.000000	 0.099235	-0.012273
		CHANNELS 3 Zrotation Xrotation Yrotation
		JOINT Chest
		{
			OFFSET	-0.000001	 0.116455	-0.014223
			CHANNELS 3 Zrotation Xrotation Yrotation
			JOINT UpperChest
			{
				OFFSET	 0.000001	 0.133602	-0.016265
				CHANNELS 3 Zrotation Xrotation Yrotation
				JOINT LeftShoulder
				{
					OFFSET	 0.061058	 0.091105	 0.007056
					CHANNELS 3 Zrotation Xrotation Yrotation
					JOINT LeftUpperArm
					{
						OFFSET	 0.133942	-0.002659	-0.026009
						CHANNELS 3 Zrotation Xrotation Yrotation
						JOINT LeftLowerArm
						{
							OFFSET	 0.274047	 0.000000	 0.000000
							CHANNELS 3 Zrotation Xrotation Yrotation
							JOINT LeftHand
							{
								OFFSET	 0.276145	 0.000000	 0.000000
								CHANNELS 3 Zrotation Xrotation Yrotation
								End Site
								{
									OFFSET	 0.165687	 0.000000	 0.000000
								}
							}
						}
					}
				}
				JOINT Neck
				{
					OFFSET	 0.000000	 0.150325	 0.007929
					CHANNELS 3 Zrotation Xrotation Yrotation
					JOINT Head
					{
						OFFSET	 0.000000	 0.103218	 0.031424
						CHANNELS 3 Zrotation Xrotation Yrotation
						End Site
						{
							OFFSET	 0.000000	 0.061931	 0.018855
						}
					}
				}
				JOINT RightShoulder
				{
					OFFSET	-0.061057	 0.091105	 0.007056
					CHANNELS 3 Zrotation Xrotation Yrotation
					JOINT RightUpperArm
					{
						OFFSET	-0.133943	-0.002660	-0.026009
						CHANNELS 3 Zrotation Xrotation Yrotation
						JOINT RightLowerArm
						{
							OFFSET	-0.274047	 0.000000	 0.000000
							CHANNELS 3 Zrotation Xrotation Yrotation
							JOINT RightHand
							{
								OFFSET	-0.276145	 0.000000	 0.000000
								CHANNELS 3 Zrotation Xrotation Yrotation
								End Site
								{
									OFFSET	-0.165687	 0.000000	 0.000000
								}
							}
						}
					}
				}
			}
		}
	}
}
MOTION
Frames:    16
Frame Time: 0.03333334
-0.353640	 1.047540	-0.881050	 1.101296	-0.484491	 56.979190	 14.142310	-8.626990	 10.342120	 0.225603	 29.368470	-0.061216	-5.975685	-6.879250	-3.645459	 0.000986	 0.577412	 1.034369	-6.436279	-9.135522	-25.944080	 0.309989	 23.275240	-0.055807	 1.348526	-9.123036	-15.145440	 0.000064	-1.225791	-0.000078	 1.644836	 0.188261	-1.127186	-0.000000	 0.000000	 0.000000	 3.297470	 0.344481	-2.263446	 0.339444	-3.651690	 11.863270	-85.597210	-0.652877	 1.897938	-19.309300	 17.660110	-53.494260	 22.594380	 26.405210	-33.433190	-5.886458	-4.180881	-10.645660	-6.037709	-4.168184	-10.478150	-1.140103	 7.962530	-14.324520	 88.330030	 3.619965	 2.399807	 7.185875	 14.147680	 48.075780	-34.197550	-4.955086	 17.607100
-0.345050	 1.047350	-0.891440	 0.901002	-0.556418	 56.039070	 12.911370	-7.643661	 7.839869	 0.216259	 27.510830	-0.056433	-7.618360	-9.267194	 0.048974	-0.000143	 0.474755	 0.756181	-7.020997	-9.272562	-25.372900	 0.268558	 23.145210	-0.046458	 2.608483	-8.820888	-14.716410	 0.000388	-1.010377	 0.032222	 1.617926	 0.152266	-1.211332	-0.000000	 0.000000	 0.000000	 3.243964	 0.270213	-2.429937	 0.409147	-3.342640	 12.101070	-85.428320	-0.605728	 1.659046	-19.223610	 18.588120	-52.855630	 22.833220	 26.960260	-33.654620	-6.110181	-4.346489	-10.342300	-6.047283	-4.287411	-10.167570	-1.324005	 8.454026	-14.501730	 88.778630	 2.732357	 1.836575	 7.030811	 15.133090	 47.314490	-33.356100	-3.975004	 16.216670
-0.338510	 1.045960	-0.899740	 0.662120	-0.336641	 55.189240	 11.719280	-6.640054	 6.022928	 0.103627	 25.098830	-0.027231	-8.392933	-10.358480	 3.528795	-0.000184	 0.424452	 0.558218	-7.795485	-9.946530	-24.949110	 0.248261	 23.684300	-0.044681	 3.670824	-8.911470	-14.399420	 0.000224	-1.030935	 0.074885	 1.537471	 0.024023	-1.246837	-0.000000	 0.000000	 0.000000	 3.079668	 0.013709	-2.498150	 0.595032	-3.191641	 12.296670	-85.074700	-0.457075	 1.437241	-19.075370	 19.395240	-52.023150	 23.164710	 28.182980	-33.944370	-6.093026	-4.544264	-10.163710	-5.932228	-4.289261	-10.068390	-1.315917	 8.577299	-14.555350	 88.736460	 2.114196	 1.754204	 7.002416	 15.914670	 46.859460	-32.754410	-2.856646	 16.029130
-0.331840	 1.044090	-0.908620	 0.381103	 0.118225	 54.314050	 10.366600	-5.711230	 4.683768	 0.115768	 22.409780	-0.032034	-8.456810	-10.779580	 6.517151	-0.000688	 0.396589	 0.431704	-8.832817	-10.992490	-24.431720	 0.288095	 24.552470	-0.055837	 4.392750	-9.018242	-14.129180	-0.000566	-1.087727	 0.087065	 1.413846	-0.203896	-1.291862	-0.000000	 0.000000	 0.000000	 2.827294	-0.440186	-2.581842	 0.700009	-2.962177	 12.330050	-84.555790	-0.203807	 1.206038	-18.721650	 20.230460	-51.115380	 23.897300	 29.733510	-35.257570	-5.995799	-4.606910	-10.219180	-5.754045	-4.153439	-10.088620	-1.366501	 8.630492	-14.677550	 88.726650	 1.524750	 1.580004	 6.766901	 16.720970	 46.564090	-32.392460	-2.085380	 16.288870
-0.325340	 1.042030	-0.918240	 0.130083	 0.552708	 53.360600	 9.080478	-4.958141	 3.698475	 0.106189	 20.249380	-0.030019	-8.214667	-11.168920	 9.173862	-0.000039	 0.202485	 0.124949	-9.877334	-12.077900	-24.097510	 0.255295	 25.410150	-0.051302	 4.952332	-9.024650	-13.591580	-0.000442	-1.032137	 0.079658	 1.339030	-0.362955	-1.322519	-0.000000	 0.000000	 0.000000	 2.674483	-0.758562	-2.640043	 0.721672	-2.537853	 12.348000	-83.991910	 0.006978	 1.072410	-17.931630	 21.254690	-50.425770	 24.672060	 32.358330	-37.338740	-5.776698	-4.409984	-10.301410	-5.633225	-4.092469	-10.212480	-1.553873	 8.777824	-14.587530	 88.695030	 1.265259	 1.673952	 6.627343	 17.358920	 46.390520	-32.209260	-1.788173	 16.173340
-0.325340	 1.042030	-0.918240	 0.130083	 0.552708	 53.360600	 9.080478	-4.958141	 3.698475	 0.106189	 20.249380	-0.030019	-8.214667	-11.168920	 9.173862	-0.000039	 0.202485	 0.124949	-9.877334	-12.077900	-24.097510	 0.255295	 25.410150	-0.051302	 4.952332	-9.024650	-13.591580	-0.000442	-1.032137	 0.079658	 1.339030	-0.362955	-1.322519	-0.000000	 0.000000	 0.000000	 2.674483	-0.758562	-2.640043	 0.721672	-2.537853	 12.348000	-83.991910	 0.006978	 1.072410	-17.931630	 21.254690	-50.425770	 24.672060	 32.358330	-37.338740	-5.776698	-4.409984	-10.301410	-5.633225	-4.092469	-10.212480	-1.553873	 8.777824	-14.587530	 88.695030	 1.265259	 1.673952	 6.627343	 17.358920	 46.390520	-32.209260	-1.788173	 16.173340
-0.317250	 1.039170	-0.932250	-0.108729	 1.259450	 51.831060	 7.254395	-4.778818	 3.114991	 0.143353	 19.413740	-0.034310	-7.492584	-12.667010	 12.097330	 0.000043	-0.631540	 0.110229	-11.385950	-13.621270	-23.557350	 0.242997	 26.383680	-0.050471	 5.580498	-8.898720	-12.724100	-0.000239	-0.863820	 0.066313	 1.217177	-0.460057	-1.275765	-0.000000	 0.000000	 0.000000	 2.427527	-0.948961	-2.544331	 0.852502	-2.483817	 12.404760	-83.524860	 0.453350	 1.262512	-17.096860	 22.252440	-49.865750	 26.595610	 34.556190	-40.557690	-5.556962	-4.386662	-10.466650	-5.324298	-4.177371	-10.544760	-1.992723	 8.713923	-14.318130	 88.429100	 1.445065	 1.754845	 6.906082	 17.191210	 48.150520	-31.690120	-0.375201	 15.070830
-0.309280	 1.036970	-0.946970	-0.198017	 2.035748	 50.193300	 5.394711	-5.163620	 2.378860	-0.078765	 19.590280	 0.002518	-6.133450	-14.364940	 15.152290	 0.000450	-0.046352	 0.076808	-12.938140	-14.966750	-23.161190	 0.222733	 26.785590	-0.046339	 6.290700	-8.304526	-11.731860	 0.000616	-1.019942	 0.064417	 1.075616	-0.512329	-1.184762	-0.000000	 0.000000	 0.000000	 2.146116	-1.049395	-2.364118	 1.028717	-2.444332	 12.340400	-83.177020	 0.945942	 1.366161	-16.367840	 23.072420	-49.321560	 28.695620	 35.817470	-43.459350	-5.252038	-4.434443	-10.776510	-4.987257	-4.305718	-10.950500	-2.258098	 8.640521	-14.180330	 87.879350	 1.521571	 2.498085	 7.055161	 17.494260	 48.519050	-31.006550	 0.360820	 15.858030
-0.303200	 1.036620	-0.958320	-0.203148	 2.419091	 49.052320	 4.259456	-5.453983	 3.437305	 0.110747	 19.787920	-0.029913	-5.076977	-14.923000	 15.556580	-0.000139	 0.358402	 0.178002	-13.886550	-15.478380	-23.107730	 0.221055	 26.343390	-0.045285	 6.791518	-7.376642	-10.878150	 0.000335	-1.012441	 0.059924	 1.024069	-0.480948	-1.147424	-0.000000	 0.000000	 0.000000	 2.041445	-0.984813	-2.290945	 1.314704	-2.378909	 12.082830	-83.070140	 0.958234	 1.452536	-15.857790	 23.811140	-48.892670	 29.559800	 36.779820	-44.765110	-4.816146	-4.337620	-11.134130	-4.714072	-4.391719	-11.214580	-2.201490	 8.721699	-14.305870	 87.407440	 1.435188	 3.450372	 7.160501	 17.941090	 48.711600	-30.507030	 0.963763	 15.968440
-0.289250	 1.037680	-0.984890	-0.140331	 3.329979	 45.932360	 1.816143	-5.852977	 5.585769	 0.137780	 19.421070	-0.033934	-3.058631	-15.235290	 16.701090	-0.000126	 0.358771	 0.161630	-15.721040	-16.103330	-23.256720	 0.189538	 23.611710	-0.030879	 7.694009	-4.250322	-8.310622	-0.000209	-0.876532	 0.049447	 0.878978	-0.407996	-0.963851	-0.000000	 0.000000	 0.000000	 1.752784	-0.832588	-1.924910	 0.981639	-2.201066	 12.023900	-82.952260	 0.843914	 1.126815	-15.203460	 24.271470	-47.847890	 32.044070	 38.808620	-47.687210	-4.237123	-3.969643	-11.235660	-4.043010	-3.937649	-11.535580	-2.514548	 8.652897	-13.978570	 86.391890	 1.690176	 6.104974	 7.775767	 17.751570	 48.782740	-29.732630	 3.461365	 16.849210
-0.289250	 1.037680	-0.984890	-0.140331	 3.329979	 45.932360	 1.816143	-5.852977	 5.585769	 0.137780	 19.421070	-0.033934	-3.058631	-15.235290	 16.701090	-0.000126	 0.358771	 0.161630	-15.721040	-16.103330	-23.256720	 0.189538	 23.611710	-0.030879	 7.694009	-4.250322	-8.310622	-0.000209	-0.876532	 0.049447	 0.878978	-0.407996	-0.963851	-0.000000	 0.000000	 0.000000	 1.752784	-0.832588	-1.924910	 0.981639	-2.201066	 12.023900	-82.952260	 0.843914	 1.126815	-15.203460	 24.271470	-47.847890	 32.044070	 38.808620	-47.687210	-4.237123	-3.969643	-11.235660	-4.043010	-3.937649	-11.535580	-2.514548	 8.652897	-13.978570	 86.391890	 1.690176	 6.104974	 7.775767	 17.751570	 48.782740	-29.732630	 3.461365	 16.849210
-0.284110	 1.038470	-0.994920	-0.286908	 3.525315	 44.458110	 1.169857	-6.070656	 6.029967	 0.022824	 19.300960	-0.014848	-2.513225	-15.404270	 17.609680	 0.000230	 0.356439	 0.110919	-15.934340	-16.124510	-23.422820	 0.125029	 21.760280	-0.015620	 7.885799	-2.573712	-6.969280	 0.001063	-0.812977	 0.041337	 0.812453	-0.416172	-0.805151	-0.000000	 0.000000	 0.000000	 1.621133	-0.847181	-1.608560	 1.096321	-2.157821	 11.790530	-83.018390	 0.510593	 1.271819	-14.857480	 24.601790	-47.571710	 32.650540	 39.120590	-47.836000	-3.661381	-3.815204	-11.283190	-3.551727	-3.775284	-11.600600	-2.195969	 8.686209	-14.084040	 86.165290	 1.803608	 7.028277	 8.078034	 17.390000	 48.609970	-29.449790	 3.876355	 17.649080
-0.278200	 1.039290	-1.006950	-1.039499	 3.313120	 43.462570	 1.098596	-6.721784	 6.597794	 0.086430	 19.516210	-0.025435	-2.011138	-15.612910	 17.849700	 0.000012	 0.355454	 0.052039	-15.462290	-15.822370	-23.959300	 0.076374	 19.086230	-0.001872	 7.990712	-0.182514	-5.714165	 0.000036	-0.802367	 0.017192	 0.952977	-0.462069	-0.902313	-0.000000	 0.000000	 0.000000	 1.901942	-0.942494	-1.800086	 1.252648	-2.111244	 10.969700	-82.640980	 0.349356	 1.238090	-14.877560	 24.517740	-47.179520	 32.867980	 39.307940	-47.422100	-2.803149	-3.621251	-11.830210	-3.072323	-3.544918	-11.629640	-1.491121	 8.664383	-14.810820	 86.101950	 1.867197	 7.843261	 8.167932	 17.284920	 49.263660	-29.148980	 3.905023	 17.653930
-0.273430	 1.039840	-1.014700	-1.177095	 3.076584	 42.503600	 0.870157	-6.757268	 7.157951	 0.068004	 19.638670	-0.021241	-1.600110	-15.717250	 18.305930	-0.000679	 0.355787	 0.018293	-15.171430	-15.357620	-23.369230	 0.080875	 17.201850	-0.000950	 8.054386	 1.464164	-5.387800	-0.000510	-0.924117	-0.000714	 0.921123	-0.392311	-0.918310	-0.000000	 0.000000	 0.000000	 1.836635	-0.799327	-1.831691	 1.164064	-1.815360	 10.955770	-82.774970	 0.153721	 1.353295	-14.830730	 24.480320	-47.059970	 32.929190	 39.551470	-47.248350	-2.709254	-3.269957	-11.684680	-2.639708	-3.410750	-11.661840	-1.697633	 8.924443	-14.756540	 86.206800	 1.645321	 8.138947	 7.815830	 17.590980	 49.798910	-28.631080	 3.414442	 17.419430
-0.267510	 1.040100	-1.024020	-1.319890	 2.998789	 41.007230	 0.479218	-6.974510	 8.393362	 0.113427	 19.921100	-0.030179	-0.991620	-15.924530	 18.733310	-0.000583	 0.355768	 0.002423	-14.878480	-15.189030	-21.932520	 0.094143	 15.154880	-0.000707	 7.227277	 3.365724	-5.117569	-0.000321	-0.932759	-0.000658	 0.772634	-0.384124	-0.808018	-0.000000	 0.000000	 0.000000	 1.542996	-0.781678	-1.613362	 1.449143	-1.713205	 10.852360	-82.797040	 0.209751	 1.394117	-14.748370	 24.287080	-47.172590	 33.282410	 39.632840	-47.350810	-2.357016	-3.274516	-11.623830	-2.075291	-3.275141	-11.846200	-2.361625	 8.468867	-14.216110	 86.981160	 0.969378	 7.507742	 7.775411	 17.670750	 50.776950	-28.063450	 3.518664	 17.254990
-0.263710	 1.039820	-1.029740	-1.426321	 2.769020	 40.040060	 0.338141	-7.098888	 8.927752	 0.139163	 20.315190	-0.035203	-0.511016	-16.168260	 19.241410	 0.000398	 0.355982	 0.002219	-14.565390	-15.080530	-21.075060	 0.110269	 14.104150	-0.003316	 5.844357	 4.330404	-4.661891	-0.000798	-0.386022	-0.000111	 0.650728	-0.357493	-0.753533	-0.000000	 0.000000	 0.000000	 1.297562	-0.725421	-1.505645	 1.998192	-1.447700	 10.405630	-82.741480	 0.337209	 1.343919	-14.648730	 24.121520	-47.278510	 33.495490	 39.608230	-47.548700	-2.000667	-2.933786	-11.873300	-1.760445	-2.979840	-11.985820	-2.084744	 8.545529	-14.587570	 87.130500	 0.995252	 7.238096	 7.819815	 17.652620	 51.364730	-27.962220	 3.398551	 17.320170
